<svg width="296.43125px" height="134px" xmlns="http://www.w3.org/2000/svg" viewBox="101.78437500000001 8 296.43125 134" style="background: rgba(0, 0, 0, 0);" preserveAspectRatio="xMidYMid"><defs><linearGradient id="editing-gradient-gradient" x1="0" x2="1" y1="0.5" y2="0.5" gradientUnits="objectBoundingBox"><stop offset="0" stop-color="#f0f"></stop><stop offset="1" stop-color="#0ff"></stop></linearGradient></defs><g><g transform="translate(147.72498691082, 98.73999977111816)"><path d="M39.10-6.59L48.51-43.65L53.06-43.65L41.41 0L36.42 0L27.33-35.07L17.98 0L13.06 0L1.41-43.65L6.34-43.65L15.68-6.91L25.41-43.65L29.31-43.65L39.10-6.59ZM71.42-30.98L71.42-30.98Q75.46-30.98 78.72-28.99L78.72-28.99L78.72-28.99Q81.98-27.01 83.84-23.58L83.84-23.58L83.84-23.58Q85.70-20.16 85.70-15.94L85.70-15.94L85.70-15.94Q85.70-14.72 85.63-14.08L85.63-14.08L60.99-14.08L60.99-14.08Q61.25-9.47 64-6.21L64-6.21L64-6.21Q66.75-2.94 71.49-2.94L71.49-2.94L71.49-2.94Q75.33-2.94 77.86-4.38L77.86-4.38L77.86-4.38Q80.38-5.82 81.92-8.38L81.92-8.38L85.38-6.08L85.38-6.08Q83.26-2.75 79.81-0.86L79.81-0.86L79.81-0.86Q76.35 1.02 71.62 1.02L71.62 1.02L71.62 1.02Q67.26 1.02 63.87-1.02L63.87-1.02L63.87-1.02Q60.48-3.07 58.56-6.72L58.56-6.72L58.56-6.72Q56.64-10.37 56.64-14.98L56.64-14.98L56.64-14.98Q56.64-19.58 58.53-23.23L58.53-23.23L58.53-23.23Q60.42-26.88 63.78-28.93L63.78-28.93L63.78-28.93Q67.14-30.98 71.42-30.98L71.42-30.98ZM61.25-17.66L81.34-17.66L81.34-17.66Q80.70-22.34 78.21-24.67L78.21-24.67L78.21-24.67Q75.71-27.01 71.42-27.01L71.42-27.01L71.42-27.01Q67.26-27.01 64.61-24.35L64.61-24.35L64.61-24.35Q61.95-21.70 61.25-17.66L61.25-17.66ZM107.07-30.98L107.07-30.98Q111.36-30.98 114.72-28.93L114.72-28.93L114.72-28.93Q118.08-26.88 119.97-23.26L119.97-23.26L119.97-23.26Q121.86-19.65 121.86-15.04L121.86-15.04L121.86-15.04Q121.86-10.37 119.94-6.72L119.94-6.72L119.94-6.72Q118.02-3.07 114.62-1.02L114.62-1.02L114.62-1.02Q111.23 1.02 106.94 1.02L106.94 1.02L106.94 1.02Q103.74 1.02 101.06-0.42L101.06-0.42L101.06-0.42Q98.37-1.86 96.51-4.42L96.51-4.42L96.51 0L92.16 0L92.16-46.46L96.51-46.46L96.51-25.47L96.51-25.47Q98.37-28.10 101.09-29.54L101.09-29.54L101.09-29.54Q103.81-30.98 107.07-30.98L107.07-30.98ZM107.07-2.94L107.07-2.94Q110.08-2.94 112.45-4.48L112.45-4.48L112.45-4.48Q114.82-6.02 116.16-8.77L116.16-8.77L116.16-8.77Q117.50-11.52 117.50-15.04L117.50-15.04L117.50-15.04Q117.50-18.50 116.16-21.22L116.16-21.22L116.16-21.22Q114.82-23.94 112.45-25.47L112.45-25.47L112.45-25.47Q110.08-27.01 107.07-27.01L107.07-27.01L107.07-27.01Q104-27.01 101.60-25.47L101.60-25.47L101.60-25.47Q99.20-23.94 97.86-21.18L97.86-21.18L97.86-21.18Q96.51-18.43 96.51-14.98L96.51-14.98L96.51-14.98Q96.51-11.52 97.86-8.77L97.86-8.77L97.86-8.77Q99.20-6.02 101.60-4.48L101.60-4.48L101.60-4.48Q104-2.94 107.07-2.94L107.07-2.94ZM146.24 1.02L146.24 1.02Q140.80 1.02 136.54-1.89L136.54-1.89L136.54-1.89Q132.29-4.80 129.89-9.98L129.89-9.98L129.89-9.98Q127.49-15.17 127.49-21.76L127.49-21.76L127.49-21.76Q127.49-28.35 129.89-33.57L129.89-33.57L129.89-33.57Q132.29-38.78 136.54-41.70L136.54-41.70L136.54-41.70Q140.80-44.61 146.24-44.61L146.24-44.61L146.24-44.61Q151.68-44.61 155.94-41.70L155.94-41.70L155.94-41.70Q160.19-38.78 162.59-33.57L162.59-33.57L162.59-33.57Q164.99-28.35 164.99-21.70L164.99-21.70L164.99-21.70Q164.99-15.10 162.59-9.95L162.59-9.95L162.59-9.95Q160.19-4.80 155.94-1.89L155.94-1.89L155.94-1.89Q151.68 1.02 146.24 1.02L146.24 1.02ZM146.24-3.39L146.24-3.39Q150.21-3.39 153.38-5.73L153.38-5.73L153.38-5.73Q156.54-8.06 158.34-12.26L158.34-12.26L158.34-12.26Q160.13-16.45 160.13-21.76L160.13-21.76L160.13-21.76Q160.13-27.07 158.34-31.30L158.34-31.30L158.34-31.30Q156.54-35.52 153.38-37.89L153.38-37.89L153.38-37.89Q150.21-40.26 146.24-40.26L146.24-40.26L146.24-40.26Q142.27-40.26 139.10-37.89L139.10-37.89L139.10-37.89Q135.94-35.52 134.14-31.30L134.14-31.30L134.14-31.30Q132.35-27.07 132.35-21.76L132.35-21.76L132.35-21.76Q132.35-16.45 134.14-12.26L134.14-12.26L134.14-12.26Q135.94-8.06 139.10-5.73L139.10-5.73L139.10-5.73Q142.27-3.39 146.24-3.39L146.24-3.39ZM188.16 1.02L188.16 1.02Q183.36 1.02 178.82-1.38L178.82-1.38L178.82-1.38Q174.27-3.78 171.26-7.87L171.26-7.87L175.17-11.33L175.17-11.33Q177.47-7.68 181.06-5.54L181.06-5.54L181.06-5.54Q184.64-3.39 188.80-3.39L188.80-3.39L188.80-3.39Q193.34-3.39 195.71-5.41L195.71-5.41L195.71-5.41Q198.08-7.42 198.08-10.88L198.08-10.88L198.08-10.88Q198.08-14.66 195.55-16.67L195.55-16.67L195.55-16.67Q193.02-18.69 187.52-20.22L187.52-20.22L187.52-20.22Q173.70-23.62 173.70-32.77L173.70-32.77L173.70-32.77Q173.70-38.46 177.41-41.54L177.41-41.54L177.41-41.54Q181.12-44.61 187.71-44.61L187.71-44.61L187.71-44.61Q192.51-44.61 196.32-42.82L196.32-42.82L196.32-42.82Q200.13-41.02 203.14-37.31L203.14-37.31L199.36-34.11L199.36-34.11Q197.06-37.25 194.30-38.75L194.30-38.75L194.30-38.75Q191.55-40.26 187.71-40.26L187.71-40.26L187.71-40.26Q183.68-40.26 181.12-38.37L181.12-38.37L181.12-38.37Q178.56-36.48 178.56-33.22L178.56-33.22L178.56-33.22Q178.56-29.89 180.93-27.94L180.93-27.94L180.93-27.94Q183.30-25.98 188.93-24.64L188.93-24.64L188.93-24.64Q195.58-22.85 199.26-19.71L199.26-19.71L199.26-19.71Q202.94-16.58 202.94-10.88L202.94-10.88L202.94-10.88Q202.94-7.36 201.15-4.67L201.15-4.67L201.15-4.67Q199.36-1.98 196-0.48L196-0.48L196-0.48Q192.64 1.02 188.16 1.02L188.16 1.02Z" fill="url(#editing-gradient-gradient)"></path></g></g><style>text {
  font-size: 64px;
  font-family: Arial Black;
  dominant-baseline: central;
  text-anchor: middle;
}</style></svg>