<svg id="clock" xmlns="http://www.w3.org/2000/svg" width="300" height="200" viewBox="0 0 600 600">
  <g>
    <circle cx="300" cy="300" r="253.9"
      style="fill: none;stroke: #000;stroke-width: 9;stroke-miterlimit: 10;"></circle>
    <path
      d="M300.5 94V61M506 300.5h32M300.5 506v33M94 300.5H60M411.3 107.8l7.9-13.8M493 190.2l13-7.4M492.1 411.4l16.5 9.5M411 492.3l8.9 15.3M189 492.3l-9.2 15.9M107.7 411L93 419.5M107.5 189.3l-17.1-9.9M188.1 108.2l-9-15.6"
      style="
    fill: none;
    stroke: #000;
    stroke-width: 9;
    stroke-miterlimit: 10;
"></path>
    <circle cx="300" cy="300" r="16.2" style="
    fill: #000;
"></circle>
  </g>
  <g id="hour" style="transform-origin: 300px 300px;">
    <path class="hour-arm" d="M300.5 298V142"
      style="
    fill: none;
    stroke: #000;
    stroke-width: 17;
    stroke-miterlimit: 10;
"></path>
    <circle cx="300" cy="300" r="253.9" style="
    fill: none;
"></circle>
  </g>
  <g id="minute" style="transform-origin: 300px 300px;">
    <path d="M300.5 298V67"
      style="
    fill: none;
    stroke: #000;
    stroke-width: 11;
    stroke-miterlimit: 10;
"></path>
    <circle cx="300" cy="300" r="253.9" style="
    fill: none;
"></circle>
  </g>
  <g id="second" style="transform-origin: 300px 300px;">
    <path d="M300.5 350V55"
      style="
    fill: none;
    stroke: #000;
    stroke-width: 4;
    stroke-miterlimit: 10;
"></path>
    <circle cx="300" cy="300" r="253.9" style="
    fill: none;
"></circle>
  </g>
</svg>